<mxfile host="app.diagrams.net" agent="Mozilla/5.0 (X11; Linux x86_64) AppleWebKit/537.36 (KHTML, like Gecko) Chrome/126.0.0.0 Safari/537.36" version="24.7.7">
  <diagram name="Page-1" id="PRxldFt_Y0fdA-2ekFZl">
    <mxGraphModel dx="1344" dy="740" grid="1" gridSize="10" guides="1" tooltips="1" connect="1" arrows="1" fold="1" page="1" pageScale="1" pageWidth="1654" pageHeight="2336" math="0" shadow="0">
      <root>
        <mxCell id="0" />
        <mxCell id="1" parent="0" />
        <mxCell id="UEIJfMRQKy63jr3Hkz9F-24" value="" style="sketch=0;points=[[0.015,0.015,0],[0.985,0.015,0],[0.985,0.985,0],[0.015,0.985,0],[0.25,0,0],[0.5,0,0],[0.75,0,0],[1,0.25,0],[1,0.5,0],[1,0.75,0],[0.75,1,0],[0.5,1,0],[0.25,1,0],[0,0.75,0],[0,0.5,0],[0,0.25,0]];verticalLabelPosition=bottom;html=1;verticalAlign=top;aspect=fixed;align=center;pointerEvents=1;shape=mxgraph.cisco19.rect;prIcon=l2_switch;fillColor=#FAFAFA;strokeColor=#005073;" vertex="1" parent="1">
          <mxGeometry x="215" y="210" width="70" height="70" as="geometry" />
        </mxCell>
        <mxCell id="UEIJfMRQKy63jr3Hkz9F-25" value="" style="verticalLabelPosition=bottom;html=1;verticalAlign=top;align=center;strokeColor=none;fillColor=#005073;shape=mxgraph.azure.computer;pointerEvents=1;" vertex="1" parent="1">
          <mxGeometry x="20" y="90" width="90" height="90" as="geometry" />
        </mxCell>
        <mxCell id="UEIJfMRQKy63jr3Hkz9F-26" value="LAN" style="text;html=1;align=center;verticalAlign=middle;whiteSpace=wrap;rounded=0;" vertex="1" parent="1">
          <mxGeometry x="220" y="280" width="60" height="30" as="geometry" />
        </mxCell>
        <mxCell id="UEIJfMRQKy63jr3Hkz9F-27" value="James&#39;s Desktop" style="text;html=1;align=center;verticalAlign=middle;whiteSpace=wrap;rounded=0;" vertex="1" parent="1">
          <mxGeometry x="35" y="190" width="60" height="30" as="geometry" />
        </mxCell>
        <mxCell id="UEIJfMRQKy63jr3Hkz9F-28" value="" style="verticalLabelPosition=bottom;html=1;verticalAlign=top;align=center;strokeColor=none;fillColor=#005073;shape=mxgraph.azure.computer;pointerEvents=1;" vertex="1" parent="1">
          <mxGeometry x="265" y="10" width="90" height="90" as="geometry" />
        </mxCell>
        <mxCell id="UEIJfMRQKy63jr3Hkz9F-29" value="Robert&#39;s Desktop" style="text;html=1;align=center;verticalAlign=middle;whiteSpace=wrap;rounded=0;" vertex="1" parent="1">
          <mxGeometry x="280" y="110" width="60" height="30" as="geometry" />
        </mxCell>
        <mxCell id="UEIJfMRQKy63jr3Hkz9F-30" value="" style="verticalLabelPosition=bottom;html=1;verticalAlign=top;align=center;strokeColor=none;fillColor=#005073;shape=mxgraph.azure.computer;pointerEvents=1;" vertex="1" parent="1">
          <mxGeometry x="400" y="170" width="90" height="90" as="geometry" />
        </mxCell>
        <mxCell id="UEIJfMRQKy63jr3Hkz9F-31" value="John&#39;s Desktop" style="text;html=1;align=center;verticalAlign=middle;whiteSpace=wrap;rounded=0;" vertex="1" parent="1">
          <mxGeometry x="415" y="270" width="60" height="30" as="geometry" />
        </mxCell>
        <mxCell id="UEIJfMRQKy63jr3Hkz9F-32" value="" style="endArrow=none;dashed=1;html=1;rounded=0;strokeColor=#005073;exitX=1;exitY=0.5;exitDx=0;exitDy=0;exitPerimeter=0;entryX=0;entryY=0.25;entryDx=0;entryDy=0;entryPerimeter=0;" edge="1" parent="1" source="UEIJfMRQKy63jr3Hkz9F-25" target="UEIJfMRQKy63jr3Hkz9F-24">
          <mxGeometry width="50" height="50" relative="1" as="geometry">
            <mxPoint x="340" y="280" as="sourcePoint" />
            <mxPoint x="390" y="230" as="targetPoint" />
          </mxGeometry>
        </mxCell>
        <mxCell id="UEIJfMRQKy63jr3Hkz9F-33" value="" style="endArrow=none;dashed=1;html=1;rounded=0;strokeColor=#005073;exitX=0.5;exitY=1;exitDx=0;exitDy=0;exitPerimeter=0;entryX=1;entryY=0.25;entryDx=0;entryDy=0;entryPerimeter=0;" edge="1" parent="1" source="UEIJfMRQKy63jr3Hkz9F-28" target="UEIJfMRQKy63jr3Hkz9F-24">
          <mxGeometry width="50" height="50" relative="1" as="geometry">
            <mxPoint x="325" y="163.5" as="sourcePoint" />
            <mxPoint x="445" y="246.5" as="targetPoint" />
          </mxGeometry>
        </mxCell>
        <mxCell id="UEIJfMRQKy63jr3Hkz9F-34" value="" style="endArrow=none;dashed=1;html=1;rounded=0;strokeColor=#005073;exitX=0.009;exitY=0.29;exitDx=0;exitDy=0;exitPerimeter=0;entryX=1;entryY=0.5;entryDx=0;entryDy=0;entryPerimeter=0;" edge="1" parent="1" source="UEIJfMRQKy63jr3Hkz9F-30" target="UEIJfMRQKy63jr3Hkz9F-24">
          <mxGeometry width="50" height="50" relative="1" as="geometry">
            <mxPoint x="414" y="150" as="sourcePoint" />
            <mxPoint x="290" y="228" as="targetPoint" />
          </mxGeometry>
        </mxCell>
        <mxCell id="UEIJfMRQKy63jr3Hkz9F-38" value="" style="verticalLabelPosition=bottom;html=1;verticalAlign=top;align=center;strokeColor=none;fillColor=#005073;shape=mxgraph.azure.computer;pointerEvents=1;" vertex="1" parent="1">
          <mxGeometry x="20" y="240" width="90" height="90" as="geometry" />
        </mxCell>
        <mxCell id="UEIJfMRQKy63jr3Hkz9F-39" value="Joseph&#39;s Desktop" style="text;html=1;align=center;verticalAlign=middle;whiteSpace=wrap;rounded=0;" vertex="1" parent="1">
          <mxGeometry x="35" y="340" width="60" height="30" as="geometry" />
        </mxCell>
        <mxCell id="UEIJfMRQKy63jr3Hkz9F-40" value="" style="verticalLabelPosition=bottom;html=1;verticalAlign=top;align=center;strokeColor=none;fillColor=#005073;shape=mxgraph.azure.computer;pointerEvents=1;" vertex="1" parent="1">
          <mxGeometry x="130" y="10" width="90" height="90" as="geometry" />
        </mxCell>
        <mxCell id="UEIJfMRQKy63jr3Hkz9F-41" value="Michael&#39;s Desktop" style="text;html=1;align=center;verticalAlign=middle;whiteSpace=wrap;rounded=0;" vertex="1" parent="1">
          <mxGeometry x="145" y="110" width="60" height="30" as="geometry" />
        </mxCell>
        <mxCell id="UEIJfMRQKy63jr3Hkz9F-42" value="" style="verticalLabelPosition=bottom;html=1;verticalAlign=top;align=center;strokeColor=none;fillColor=#005073;shape=mxgraph.azure.computer;pointerEvents=1;" vertex="1" parent="1">
          <mxGeometry x="120" y="360" width="90" height="90" as="geometry" />
        </mxCell>
        <mxCell id="UEIJfMRQKy63jr3Hkz9F-43" value="Richard&#39;s Desktop" style="text;html=1;align=center;verticalAlign=middle;whiteSpace=wrap;rounded=0;" vertex="1" parent="1">
          <mxGeometry x="135" y="460" width="60" height="30" as="geometry" />
        </mxCell>
        <mxCell id="UEIJfMRQKy63jr3Hkz9F-44" value="" style="verticalLabelPosition=bottom;html=1;verticalAlign=top;align=center;strokeColor=none;fillColor=#005073;shape=mxgraph.azure.computer;pointerEvents=1;" vertex="1" parent="1">
          <mxGeometry x="280" y="350" width="90" height="90" as="geometry" />
        </mxCell>
        <mxCell id="UEIJfMRQKy63jr3Hkz9F-45" value="William&#39;s Desktop" style="text;html=1;align=center;verticalAlign=middle;whiteSpace=wrap;rounded=0;" vertex="1" parent="1">
          <mxGeometry x="295" y="450" width="60" height="30" as="geometry" />
        </mxCell>
        <mxCell id="UEIJfMRQKy63jr3Hkz9F-46" value="" style="verticalLabelPosition=bottom;html=1;verticalAlign=top;align=center;strokeColor=none;fillColor=#005073;shape=mxgraph.azure.computer;pointerEvents=1;" vertex="1" parent="1">
          <mxGeometry x="400" y="300" width="90" height="90" as="geometry" />
        </mxCell>
        <mxCell id="UEIJfMRQKy63jr3Hkz9F-47" value="David&#39;s Desktop" style="text;html=1;align=center;verticalAlign=middle;whiteSpace=wrap;rounded=0;" vertex="1" parent="1">
          <mxGeometry x="415" y="400" width="60" height="30" as="geometry" />
        </mxCell>
        <mxCell id="UEIJfMRQKy63jr3Hkz9F-48" value="" style="endArrow=none;dashed=1;html=1;rounded=0;strokeColor=#005073;exitX=0.5;exitY=1;exitDx=0;exitDy=0;exitPerimeter=0;entryX=0.5;entryY=0;entryDx=0;entryDy=0;entryPerimeter=0;" edge="1" parent="1" source="UEIJfMRQKy63jr3Hkz9F-40" target="UEIJfMRQKy63jr3Hkz9F-24">
          <mxGeometry width="50" height="50" relative="1" as="geometry">
            <mxPoint x="120" y="145" as="sourcePoint" />
            <mxPoint x="225" y="238" as="targetPoint" />
          </mxGeometry>
        </mxCell>
        <mxCell id="UEIJfMRQKy63jr3Hkz9F-49" value="" style="endArrow=none;dashed=1;html=1;rounded=0;strokeColor=#005073;exitX=0.004;exitY=0.203;exitDx=0;exitDy=0;exitPerimeter=0;entryX=1;entryY=0.75;entryDx=0;entryDy=0;entryPerimeter=0;" edge="1" parent="1" source="UEIJfMRQKy63jr3Hkz9F-46" target="UEIJfMRQKy63jr3Hkz9F-24">
          <mxGeometry width="50" height="50" relative="1" as="geometry">
            <mxPoint x="421" y="196" as="sourcePoint" />
            <mxPoint x="295" y="255" as="targetPoint" />
          </mxGeometry>
        </mxCell>
        <mxCell id="UEIJfMRQKy63jr3Hkz9F-50" value="" style="endArrow=none;dashed=1;html=1;rounded=0;strokeColor=#005073;exitX=0.5;exitY=0;exitDx=0;exitDy=0;exitPerimeter=0;" edge="1" parent="1" source="UEIJfMRQKy63jr3Hkz9F-44">
          <mxGeometry width="50" height="50" relative="1" as="geometry">
            <mxPoint x="410" y="328" as="sourcePoint" />
            <mxPoint x="280" y="280" as="targetPoint" />
          </mxGeometry>
        </mxCell>
        <mxCell id="UEIJfMRQKy63jr3Hkz9F-51" value="" style="endArrow=none;dashed=1;html=1;rounded=0;strokeColor=#005073;entryX=0.015;entryY=0.985;entryDx=0;entryDy=0;exitX=0.5;exitY=0;exitDx=0;exitDy=0;exitPerimeter=0;entryPerimeter=0;" edge="1" parent="1" source="UEIJfMRQKy63jr3Hkz9F-42" target="UEIJfMRQKy63jr3Hkz9F-24">
          <mxGeometry width="50" height="50" relative="1" as="geometry">
            <mxPoint x="335" y="360" as="sourcePoint" />
            <mxPoint x="290" y="290" as="targetPoint" />
          </mxGeometry>
        </mxCell>
        <mxCell id="UEIJfMRQKy63jr3Hkz9F-52" value="" style="endArrow=none;dashed=1;html=1;rounded=0;strokeColor=#005073;entryX=0;entryY=0.5;entryDx=0;entryDy=0;exitX=1.014;exitY=0.385;exitDx=0;exitDy=0;exitPerimeter=0;entryPerimeter=0;" edge="1" parent="1" source="UEIJfMRQKy63jr3Hkz9F-38" target="UEIJfMRQKy63jr3Hkz9F-24">
          <mxGeometry width="50" height="50" relative="1" as="geometry">
            <mxPoint x="175" y="370" as="sourcePoint" />
            <mxPoint x="226" y="289" as="targetPoint" />
          </mxGeometry>
        </mxCell>
        <mxCell id="UEIJfMRQKy63jr3Hkz9F-53" value="" style="verticalLabelPosition=bottom;html=1;verticalAlign=top;align=center;strokeColor=none;fillColor=#005073;shape=mxgraph.azure.computer;pointerEvents=1;" vertex="1" parent="1">
          <mxGeometry x="385" y="40" width="90" height="90" as="geometry" />
        </mxCell>
        <mxCell id="UEIJfMRQKy63jr3Hkz9F-54" value="Robert&#39;s Desktop" style="text;html=1;align=center;verticalAlign=middle;whiteSpace=wrap;rounded=0;" vertex="1" parent="1">
          <mxGeometry x="400" y="140" width="60" height="30" as="geometry" />
        </mxCell>
        <mxCell id="UEIJfMRQKy63jr3Hkz9F-55" value="" style="endArrow=none;dashed=1;html=1;rounded=0;strokeColor=#005073;exitX=0;exitY=0.5;exitDx=0;exitDy=0;exitPerimeter=0;entryX=1;entryY=0.5;entryDx=0;entryDy=0;entryPerimeter=0;" edge="1" parent="1" source="UEIJfMRQKy63jr3Hkz9F-53" target="UEIJfMRQKy63jr3Hkz9F-24">
          <mxGeometry width="50" height="50" relative="1" as="geometry">
            <mxPoint x="411" y="206" as="sourcePoint" />
            <mxPoint x="295" y="255" as="targetPoint" />
          </mxGeometry>
        </mxCell>
      </root>
    </mxGraphModel>
  </diagram>
</mxfile>
